<svg width="2500" height="1357" viewBox="0 0 2500 1357" fill="none" xmlns="http://www.w3.org/2000/svg">
<path d="M1682.33 154.151L1681.82 153.389L1681.32 152.628L1680.55 152.12L1679.79 151.613L1679.29 150.852L1678.78 150.09L1678.02 149.583L1677.25 149.075L1676.75 148.314L1676.24 147.553L1675.48 147.045L1674.72 146.538L1674.21 145.776L1673.7 145.015L1672.94 144.507L1672.18 144L1671.67 143.239L1671.17 142.477L1670.4 141.97L1669.64 141.462L1669.14 140.701L1668.63 139.94L1667.87 139.432L1667.1 138.925L1666.6 138.163H1676.75L1681.82 139.432L1686.9 140.701L1773.18 164.809C1830.7 180.88 1884.83 199.067 1935.59 219.368C1986.34 239.669 2030.16 259.716 2067.04 279.51C2103.75 299.471 2137.08 319.772 2167.02 340.414C2197.13 361.222 2224.2 382.368 2248.22 403.855C2272.41 425.508 2294.24 449.025 2313.7 474.401C2333.15 499.778 2348.38 523.461 2359.37 545.455C2370.37 567.449 2378.41 589.44 2383.48 611.434C2388.56 633.428 2390.67 655.419 2389.83 677.413C2388.98 699.404 2385.17 722.243 2378.41 745.929C2371.64 769.615 2362.33 793.297 2350.49 816.983C2338.65 840.669 2323.85 864.351 2306.08 888.037C2288.32 911.723 2269.54 933.547 2249.75 953.508C2229.78 973.302 2203.31 995.042 2170.32 1018.73C2137.33 1042.41 2102.65 1063.98 2066.28 1083.44C2029.9 1102.89 1989.3 1121.08 1944.47 1137.99C1899.64 1154.91 1873.42 1164.64 1865.8 1167.18C1858.19 1169.72 1852.69 1171.41 1849.31 1172.25L1844.23 1173.52L1840.43 1174.79L1836.62 1176.06L1832.81 1177.33L1829.01 1178.6L1826.47 1179.36L1823.93 1179.87V1174.79L1826.47 1174.28L1829.01 1173.52L1829.51 1172.76L1830.28 1172.25L1831.04 1171.75L1831.54 1170.98L1832.05 1170.22L1832.81 1169.72L1833.57 1169.21L1834.08 1168.45L1834.59 1167.69L1835.35 1167.18L1836.11 1166.67L1836.62 1165.91L1837.12 1165.15L1837.89 1164.64L1838.65 1164.13C1838.99 1163.63 1840.17 1162.27 1842.2 1160.07C1844.4 1158.04 1856.24 1144.17 1877.73 1118.45C1899.38 1092.57 1917.14 1066.35 1931.02 1039.79C1945.06 1013.06 1954.62 987.85 1959.7 964.166C1964.77 940.48 1966.46 920.179 1964.77 903.263C1963.08 886.347 1959.27 871.542 1953.35 858.854C1947.43 846.166 1939.98 835.762 1931.02 827.641C1922.22 819.688 1911.48 813.177 1898.79 808.101C1886.1 803.026 1869.61 800.488 1849.31 800.488C1829.01 800.488 1806.17 804.716 1780.79 813.177C1755.41 821.637 1729.61 833.899 1703.39 849.972C1677.17 866.046 1653.06 883.383 1631.07 901.994L1598.08 929.908L1597.57 930.669L1596.81 931.177L1596.05 931.684L1595.54 932.446L1591.74 933.207L1587.93 933.715L1587.42 931.177C1586.92 929.487 1580.74 920.179 1568.9 903.263C1557.05 886.347 1545.47 873.826 1534.13 865.706C1522.63 857.753 1511.38 853.358 1500.38 852.51C1489.38 851.662 1477.12 854.626 1463.59 861.392C1450.05 868.157 1438.21 876.618 1428.06 886.768C1417.91 896.919 1403.53 915.103 1384.92 941.328C1366.31 967.549 1339.92 1012.21 1305.74 1075.32L1254.23 1169.72L1252.96 1172.25L1251.69 1174.79L1250.42 1177.33L1249.15 1179.87L1247.89 1182.4L1246.62 1184.94L1245.35 1182.4L1244.08 1179.87L1242.81 1177.33L1241.54 1174.79L1240.78 1174.28L1240.27 1173.52L1239.77 1172.76L1239 1172.25L1237.74 1169.72C1236.89 1168.02 1224.2 1143.92 1199.67 1097.39C1175.14 1050.87 1152.72 1011.11 1132.42 978.123C1112.12 945.134 1093.77 919.504 1077.36 901.233C1060.78 883.129 1046.56 870.695 1034.72 863.929C1022.88 857.164 1011.89 853.358 1001.73 852.51C991.584 851.662 983.971 852.089 978.896 853.779C973.821 855.469 965.784 860.544 954.788 869.005C943.79 877.465 932.795 890.407 921.799 907.831L905.304 933.715L901.498 933.207L897.691 932.446L897.184 931.684L896.422 931.177L895.659 930.669L895.154 929.908L862.164 901.994C840.171 883.383 816.063 866.046 789.841 849.972C763.617 833.899 739.934 822.058 718.787 814.445C697.639 806.832 678.185 802.178 660.422 800.488C642.658 798.798 626.164 799.641 610.938 803.026C595.712 806.411 583.445 810.893 574.142 816.475C564.836 821.891 560.185 825.443 560.185 827.134C560.185 828.824 559.337 829.671 557.647 829.671C555.955 829.671 551.557 836.015 544.451 848.703C537.176 861.392 532.271 873.659 529.733 885.499C527.195 897.34 526.772 913.413 528.464 933.715C530.154 954.016 535.23 976.009 543.69 999.693C552.148 1023.38 564.413 1047.48 580.486 1072.02C596.557 1096.55 612.798 1117.95 629.209 1136.22C645.787 1154.32 654.245 1163.63 654.585 1164.13L655.346 1164.64L656.108 1165.15L656.615 1165.91L657.123 1166.67L657.884 1167.18L658.645 1167.69L659.153 1168.45L659.66 1169.21L660.422 1169.72L661.183 1170.22L661.691 1170.98L662.198 1171.75L662.959 1172.25L663.721 1172.76L664.228 1173.52L666.766 1174.28L669.303 1174.79V1179.87L666.766 1179.36L664.228 1178.6L660.422 1177.33L656.615 1176.06L652.809 1174.79L649.002 1173.52L645.196 1172.25C642.658 1171.41 632.929 1168.45 616.013 1163.37C599.094 1158.3 569.067 1146.88 525.927 1129.11C482.787 1111.35 444.298 1093.16 410.464 1074.55C376.627 1055.95 345.754 1036.49 317.84 1016.19C289.926 995.887 265.986 975.839 246.025 956.046C226.175 936.023 207.533 914.839 190.196 892.605C173.02 870.232 157.741 846.465 144.519 821.551C131.491 796.514 121.594 771.727 114.828 747.198C108.06 722.669 104.254 698.983 103.409 676.144C102.561 653.305 104.678 631.311 109.753 610.165C114.828 589.019 123.286 566.601 135.13 542.918C146.97 519.234 162.787 494.87 182.583 469.833C202.545 444.964 225.637 421.111 251.861 398.272C278.083 375.433 304.728 354.708 331.797 336.1C358.863 317.491 391.431 298.035 429.496 277.734C467.561 257.433 512.391 237.131 563.991 216.83C615.589 196.529 668.88 178.766 723.863 163.54L806.336 140.701L811.411 139.432L816.487 138.163H826.637L826.13 138.925L825.368 139.432L824.605 139.94L824.1 140.701L823.592 141.462L822.831 141.97L822.067 142.477L821.562 143.239L821.054 144L820.293 144.507L819.529 145.015L819.024 145.776L818.517 146.538L817.756 147.045L816.992 147.553L816.487 148.314L815.979 149.075L815.218 149.583L814.454 150.09L813.949 150.852L813.442 151.613L812.68 152.12L811.916 152.628L811.411 153.389L785.527 184.602C768.101 205.243 754.736 224.867 745.433 243.476C736.127 262.084 729.783 278.158 726.4 291.691C723.015 305.224 721.746 319.181 722.594 333.562C723.439 347.943 726.989 362.067 733.25 375.941C739.677 389.981 746.702 401.655 754.314 410.96C761.927 420.266 774.192 430.416 791.11 441.412C808.026 452.407 827.906 461.713 850.745 469.326C873.584 476.939 900.229 480.745 930.681 480.745C961.132 480.745 982.279 477.784 994.122 471.863C1005.96 465.943 1016.79 459.008 1026.6 451.055C1036.25 442.934 1046.99 429.992 1058.83 412.229C1070.67 394.465 1080.82 374.588 1089.28 352.594C1097.74 330.6 1104.09 287.461 1108.32 223.174C1112.54 158.888 1116.1 119.299 1118.97 104.413C1122.02 89.6944 1130.14 94.7697 1143.34 119.639C1156.36 144.675 1164.31 161.847 1167.19 171.153C1170.23 180.458 1179.79 183.587 1195.86 180.542C1211.94 177.664 1231.81 176.649 1255.5 177.497C1279.18 178.342 1296.1 179.867 1306.25 182.065C1316.4 184.095 1325.54 174.959 1333.66 154.658C1341.61 134.357 1349.81 117.017 1358.27 102.636C1366.73 88.2555 1373.5 104.75 1378.57 152.12C1383.65 199.491 1387.03 239.245 1388.73 271.39C1390.42 303.534 1395.49 330.6 1403.95 352.594C1412.41 374.588 1421.97 393.364 1432.63 408.93C1443.11 424.663 1453.01 437.182 1462.32 446.487C1471.62 455.793 1483.04 463.827 1496.58 470.595C1510.11 477.363 1532.1 480.745 1562.55 480.745C1593.01 480.745 1619.65 476.939 1642.49 469.326C1665.33 461.713 1683.94 453.255 1698.32 443.949C1712.7 434.644 1725.13 424.326 1735.62 412.99C1746.28 401.487 1754.57 388.545 1760.49 374.164C1766.41 359.783 1769.37 343.712 1769.37 325.949C1769.37 308.185 1766.41 290.846 1760.49 273.927C1754.57 257.009 1745.69 239.245 1733.84 220.637C1722 202.028 1710.58 186.379 1699.59 173.69C1688.59 161.002 1682.84 154.491 1682.33 154.151Z" fill="black" stroke="black" stroke-width="1.26882"/>
<path d="M2371.55 376.702L2372.06 377.971L2400.48 413.498C2419.6 437.181 2435.92 461.713 2449.46 487.089C2462.99 512.466 2473.99 539.535 2482.45 568.294C2490.91 597.053 2495.98 618.202 2497.68 631.735C2499.37 645.268 2499.79 665.146 2498.94 691.37C2498.1 717.594 2494.29 744.239 2487.53 771.305C2480.76 798.372 2471.03 825.017 2458.34 851.241C2445.65 877.465 2438.89 891.422 2438.04 893.112L2436.77 895.65L2436.01 896.158L2435.5 896.919L2435 897.68L2434.23 898.188L2432.97 900.725C2432.12 902.415 2431.44 903.263 2430.93 903.263H2430.43L2429.92 904.532C2429.41 905.379 2428.91 905.801 2428.4 905.801H2427.89L2427.38 908.338L2426.62 910.876H2425.35L2424.85 913.413C2424.34 915.104 2413.93 928.218 2393.63 952.747C2373.33 977.278 2350.24 1001.39 2324.35 1025.07L2285.78 1060.6H2283.24L2282.74 1061.87L2281.98 1063.13H2280.71L2280.2 1064.4L2279.44 1065.67L2278.67 1066.18L2278.17 1066.94L2275.63 1067.7L2273.09 1068.21L2272.59 1069.48C2272.08 1070.32 2271.57 1070.75 2271.06 1070.75H2270.56L2270.05 1072.02C2269.54 1072.86 2254.91 1083.01 2226.15 1102.47C2197.39 1121.92 2164.65 1141.63 2127.94 1161.59C2091.06 1181.39 2047.67 1201.44 1997.76 1221.74C1947.85 1242.04 1893.72 1260.65 1835.35 1277.57C1776.98 1294.48 1715.66 1308.86 1651.37 1320.71C1587.52 1332.49 1523.17 1341.38 1458.51 1347.35C1394.22 1353.27 1324.44 1356.23 1249.15 1356.23C1173.87 1356.23 1110.43 1354.12 1058.83 1349.89C1007.23 1345.66 950.558 1338.47 888.81 1328.32C827.059 1318.17 767.003 1305.48 708.637 1290.25C650.271 1275.03 596.981 1258.53 548.765 1240.77C500.55 1223.01 453.604 1202.7 407.926 1179.87C362.249 1157.03 322.915 1135.03 289.926 1113.89C256.936 1092.74 228.175 1071.76 203.646 1050.95L166.85 1019.99L165.581 1019.49L164.312 1018.73V1017.46L163.044 1016.95L161.775 1016.19L161.267 1015.43L160.506 1014.92L159.745 1014.41L159.237 1013.65L158.73 1012.89L157.968 1012.38L157.207 1011.87L156.699 1011.11L156.192 1010.35L155.431 1009.84L154.669 1009.34L154.162 1008.58L153.654 1007.81C153.147 1007.47 150.355 1004.77 145.28 999.693C140.205 994.618 126.248 978.123 103.409 950.209C80.5702 922.295 61.1141 892.265 45.0432 860.123C28.9697 827.981 17.5503 798.372 10.785 771.305C4.01708 744.239 0.634399 712.94 0.634399 677.413C0.634399 641.886 4.01708 611.01 10.785 584.789C17.5503 558.567 27.1096 532.767 39.4603 507.39L57.7314 469.326L58.2389 468.057C58.7439 467.212 59.2514 466.788 59.7615 466.788H60.269L80.0626 437.605C93.0884 418.149 112.037 395.057 136.906 368.328C161.942 341.766 189.689 316.643 220.141 292.96C250.592 269.276 285.695 245.589 325.453 221.906C365.207 198.222 406.657 176.652 449.797 157.196C492.937 137.74 537.767 119.976 584.292 103.905C630.815 87.8343 684.106 72.6084 744.164 58.2276C804.22 43.8468 866.816 32.0061 931.95 22.7006C997.081 13.3951 1060.52 7.05095 1122.27 3.66827C1184.02 0.285591 1252.54 -0.138196 1327.82 2.39945C1403.1 4.93709 1473.31 10.4362 1538.45 18.8941C1603.58 27.3521 1666.17 38.3502 1726.23 51.8835C1786.29 65.4167 1845.5 81.9114 1903.87 101.368C1962.23 120.824 2015.1 141.546 2062.47 163.54C2109.84 185.534 2151.71 207.949 2188.08 230.787C2224.46 253.626 2252.11 272.405 2271.06 287.123C2290.18 302.009 2309.47 318.336 2328.92 336.1C2348.38 353.863 2360.22 364.859 2364.45 369.089C2368.68 373.319 2371.05 375.857 2371.55 376.702Z" fill="white" stroke="white" stroke-width="1.26882"/>
<path d="M2340.34 415.528L2341.61 416.035L2342.12 418.573L2342.88 421.111L2343.64 421.618L2344.15 422.379L2367.49 453.592C2383.23 474.234 2397.01 496.819 2408.86 521.348C2420.7 545.879 2429.58 569.563 2435.5 592.402C2441.42 615.24 2444.39 643.999 2444.39 678.681C2444.39 713.361 2441 743.391 2434.23 768.768C2427.47 794.144 2421.12 813.177 2415.2 825.865C2409.28 838.553 2406.06 845.745 2405.56 847.435L2405.05 849.972L2403.78 850.48C2402.94 850.987 2402.51 851.492 2402.51 852.003V852.51L2402.01 853.779C2401.5 854.626 2397.86 860.544 2391.09 871.542C2384.33 882.541 2371.64 899.878 2353.03 923.564C2334.42 947.25 2314.97 968.397 2294.66 987.005L2264.21 1014.92L2263.45 1015.43L2262.94 1016.19L2262.44 1016.95L2261.67 1017.46L2260.91 1017.96L2260.41 1018.73V1019.99L2259.14 1020.5L2257.87 1021.26L2255.33 1022.53C2253.64 1023.38 2246.87 1028.45 2235.03 1037.76C2223.19 1047.06 2199.33 1062.97 2163.47 1085.47C2127.43 1107.8 2086.32 1129.79 2040.14 1151.44C1994.12 1172.93 1944.89 1192.55 1892.45 1210.32C1840 1228.08 1783.75 1243.73 1723.69 1257.26C1663.64 1270.8 1601.46 1281.8 1537.18 1290.25C1472.89 1298.71 1402.68 1304.21 1326.55 1306.75C1250.42 1309.29 1182.33 1308.86 1122.27 1305.48C1062.21 1302.1 1001.73 1296.17 940.831 1287.72C879.928 1279.26 819.024 1267.84 758.121 1253.46C697.217 1239.08 639.273 1222.16 584.292 1202.7C529.309 1183.25 480.249 1162.95 437.109 1141.8C393.969 1120.66 355.481 1099.09 321.646 1077.09C287.809 1055.1 257.358 1032.85 230.291 1010.35L189.689 976.855L189.181 975.586C188.674 974.741 184.784 970.257 177.508 962.136C170.4 954.183 157.968 938.79 140.205 915.951C122.441 893.112 106.962 869.258 93.7659 844.39C80.7376 819.353 70.8408 794.144 64.0755 768.768C57.3076 743.391 53.5011 717.167 52.6561 690.101C51.8085 663.034 53.0773 639.772 56.4625 620.316C59.8452 600.86 66.8669 577.176 77.525 549.262L93.2584 507.391L94.5272 506.883C95.3722 506.375 95.796 505.868 95.796 505.36V504.853L117.366 472.371C131.744 450.885 148.663 429.145 168.119 407.154C187.572 385.16 211.68 362.321 240.442 338.637C269.201 314.953 300.921 292.536 335.603 271.39C370.283 250.244 408.771 229.519 451.066 209.217C493.358 188.916 539.884 169.884 590.636 152.12C641.389 134.357 697.217 118.286 758.121 103.905C819.024 89.5244 879.928 78.105 940.831 69.647C1001.73 61.1891 1062.21 55.2662 1122.27 51.8835C1182.33 48.5009 1250.42 48.0771 1326.55 50.6147C1402.68 53.1524 1472.89 58.6514 1537.18 67.1094C1601.46 75.5674 1663.64 86.5655 1723.69 100.099C1783.75 113.632 1840 129.282 1892.45 147.045C1944.89 164.809 1993.11 183.841 2037.09 204.142C2081.08 224.443 2120.67 245.336 2155.85 266.822C2190.87 288.476 2220.82 309.284 2245.68 329.248C2270.72 349.042 2292.55 368.244 2311.16 386.852C2329.77 405.461 2339.49 415.02 2340.34 415.528Z" fill="#FEFEFE" stroke="#FEFEFE" stroke-width="1.26882"/>
<path d="M1682.33 154.151L1681.82 153.389L1681.32 152.628L1680.55 152.12L1679.79 151.613L1679.29 150.852L1678.78 150.09L1678.02 149.583L1677.25 149.075L1676.75 148.314L1676.24 147.553L1675.48 147.045L1674.72 146.538L1674.21 145.776L1673.7 145.015L1672.94 144.507L1672.18 144L1671.67 143.239L1671.17 142.477L1670.4 141.97L1669.64 141.462L1669.14 140.701L1668.63 139.94L1667.87 139.432L1667.1 138.925L1666.6 138.163H1676.75L1681.82 139.432L1686.9 140.701L1773.18 164.809C1830.7 180.88 1884.83 199.067 1935.59 219.368C1986.34 239.669 2030.16 259.716 2067.04 279.51C2103.75 299.471 2137.08 319.772 2167.02 340.414C2197.13 361.222 2224.2 382.368 2248.22 403.855C2272.41 425.508 2294.24 449.025 2313.7 474.401C2333.15 499.778 2348.38 523.461 2359.37 545.455C2370.37 567.449 2378.41 589.44 2383.48 611.434C2388.56 633.428 2390.67 655.419 2389.83 677.413C2388.98 699.404 2385.17 722.243 2378.41 745.929C2371.64 769.615 2362.33 793.297 2350.49 816.983C2338.65 840.669 2323.85 864.351 2306.08 888.037C2288.32 911.723 2269.54 933.547 2249.75 953.508C2229.78 973.302 2203.31 995.042 2170.32 1018.73C2137.33 1042.41 2102.65 1063.98 2066.28 1083.44C2029.9 1102.89 1989.3 1121.08 1944.47 1137.99C1899.64 1154.91 1873.42 1164.64 1865.8 1167.18C1858.19 1169.72 1852.69 1171.41 1849.31 1172.25L1844.23 1173.52L1840.43 1174.79L1836.62 1176.06L1832.81 1177.33L1829.01 1178.6L1826.47 1179.36L1823.93 1179.87V1174.79L1826.47 1174.28L1829.01 1173.52L1829.51 1172.76L1830.28 1172.25L1831.04 1171.75L1831.54 1170.98L1832.05 1170.22L1832.81 1169.72L1833.57 1169.21L1834.08 1168.45L1834.59 1167.69L1835.35 1167.18L1836.11 1166.67L1836.62 1165.91L1837.12 1165.15L1837.89 1164.64L1838.65 1164.13C1838.99 1163.62 1840.17 1162.27 1842.2 1160.07C1844.4 1158.04 1856.24 1144.17 1877.73 1118.45C1899.38 1092.57 1917.14 1066.35 1931.02 1039.79C1945.06 1013.06 1954.62 987.85 1959.7 964.166C1964.77 940.48 1966.46 920.179 1964.77 903.263C1963.08 886.347 1959.27 871.542 1953.35 858.854C1947.43 846.166 1939.98 835.762 1931.02 827.641C1922.22 819.688 1911.48 813.176 1898.79 808.101C1886.1 803.026 1869.61 800.488 1849.31 800.488C1829.01 800.488 1806.17 804.716 1780.79 813.177C1755.41 821.637 1729.61 833.899 1703.39 849.972C1677.17 866.046 1653.06 883.383 1631.07 901.994L1598.08 929.908L1597.57 930.669L1596.81 931.177L1596.05 931.684L1595.54 932.446L1591.74 933.207L1587.93 933.715L1587.42 931.177C1586.92 929.487 1580.74 920.179 1568.9 903.263C1557.05 886.347 1545.47 873.826 1534.13 865.706C1522.63 857.753 1511.38 853.358 1500.38 852.51C1489.38 851.662 1477.12 854.626 1463.59 861.392C1450.05 868.157 1438.21 876.618 1428.06 886.768C1417.91 896.919 1403.53 915.104 1384.92 941.328C1366.31 967.549 1339.92 1012.21 1305.74 1075.32L1254.23 1169.72L1252.96 1172.25L1251.69 1174.79L1250.42 1177.33L1249.15 1179.87L1247.89 1182.4L1246.62 1184.94L1245.35 1182.4L1244.08 1179.87L1242.81 1177.33L1241.54 1174.79L1240.78 1174.28L1240.27 1173.52L1239.77 1172.76L1239 1172.25L1237.74 1169.72C1236.89 1168.02 1224.2 1143.92 1199.67 1097.39C1175.14 1050.87 1152.72 1011.11 1132.42 978.123C1112.12 945.134 1093.77 919.504 1077.36 901.233C1060.78 883.129 1046.56 870.695 1034.72 863.929C1022.88 857.164 1011.89 853.358 1001.73 852.51C991.584 851.662 983.971 852.089 978.896 853.779C973.821 855.469 965.784 860.544 954.788 869.005C943.79 877.465 932.795 890.407 921.799 907.831L905.304 933.715L901.498 933.207L897.691 932.446L897.184 931.684L896.422 931.177L895.659 930.669L895.154 929.908L862.164 901.994C840.171 883.383 816.063 866.046 789.841 849.972C763.617 833.899 739.934 822.058 718.787 814.445C697.639 806.832 678.185 802.178 660.422 800.488C642.658 798.798 626.164 799.641 610.938 803.026C595.712 806.411 583.445 810.893 574.142 816.475C564.836 821.891 560.185 825.443 560.185 827.134C560.185 828.824 559.337 829.671 557.647 829.671C555.955 829.671 551.557 836.015 544.451 848.703C537.176 861.392 532.271 873.659 529.733 885.499C527.195 897.34 526.772 913.413 528.464 933.715C530.154 954.016 535.23 976.009 543.69 999.693C552.148 1023.38 564.413 1047.48 580.486 1072.02C596.557 1096.55 612.798 1117.95 629.209 1136.22C645.787 1154.32 654.245 1163.62 654.585 1164.13L655.346 1164.64L656.108 1165.15L656.615 1165.91L657.123 1166.67L657.884 1167.18L658.645 1167.69L659.153 1168.45L659.66 1169.21L660.422 1169.72L661.183 1170.22L661.691 1170.98L662.198 1171.75L662.959 1172.25L663.721 1172.76L664.228 1173.52L666.766 1174.28L669.303 1174.79V1179.87L666.766 1179.36L664.228 1178.6L660.422 1177.33L656.615 1176.06L652.809 1174.79L649.002 1173.52L645.196 1172.25C642.658 1171.41 632.929 1168.45 616.013 1163.37C599.094 1158.3 569.067 1146.88 525.927 1129.11C482.787 1111.35 444.298 1093.16 410.464 1074.55C376.627 1055.95 345.754 1036.49 317.84 1016.19C289.926 995.887 265.986 975.839 246.025 956.046C226.175 936.023 207.533 914.839 190.196 892.605C173.02 870.232 157.741 846.465 144.519 821.551C131.491 796.514 121.594 771.727 114.828 747.198C108.06 722.669 104.254 698.983 103.409 676.144C102.561 653.305 104.678 631.311 109.753 610.165C114.828 589.019 123.286 566.601 135.13 542.918C146.97 519.234 162.787 494.87 182.583 469.833C202.545 444.964 225.637 421.111 251.861 398.272C278.083 375.433 304.728 354.708 331.797 336.1C358.863 317.491 391.432 298.035 429.496 277.734C467.561 257.433 512.391 237.131 563.991 216.83C615.589 196.529 668.88 178.766 723.863 163.54L806.336 140.701L811.411 139.432L816.487 138.163H826.637L826.13 138.925L825.368 139.432L824.605 139.94L824.1 140.701L823.592 141.462L822.831 141.97L822.067 142.477L821.562 143.239L821.054 144L820.293 144.507L819.529 145.015L819.024 145.776L818.517 146.538L817.756 147.045L816.992 147.553L816.487 148.314L815.979 149.075L815.218 149.583L814.454 150.09L813.949 150.852L813.442 151.613L812.68 152.12L811.916 152.628L811.411 153.389L785.527 184.602C768.101 205.243 754.736 224.867 745.433 243.476C736.127 262.084 729.783 278.158 726.4 291.691C723.015 305.224 721.746 319.181 722.594 333.562C723.439 347.943 726.989 362.067 733.25 375.941C739.677 389.981 746.702 401.655 754.314 410.96C761.927 420.266 774.192 430.416 791.11 441.412C808.026 452.407 827.906 461.713 850.745 469.326C873.584 476.939 900.229 480.745 930.681 480.745C961.132 480.745 982.279 477.784 994.122 471.863C1005.96 465.943 1016.79 459.008 1026.6 451.055C1036.25 442.934 1046.99 429.992 1058.83 412.229C1070.67 394.465 1080.82 374.588 1089.28 352.594C1097.74 330.6 1104.09 287.461 1108.32 223.174C1112.54 158.888 1116.1 119.299 1118.97 104.413C1122.02 89.6944 1130.14 94.7697 1143.34 119.639C1156.36 144.675 1164.31 161.847 1167.19 171.153C1170.23 180.458 1179.79 183.587 1195.86 180.542C1211.94 177.664 1231.81 176.649 1255.5 177.497C1279.18 178.342 1296.1 179.867 1306.25 182.065C1316.4 184.095 1325.54 174.959 1333.66 154.658C1341.61 134.357 1349.81 117.017 1358.27 102.636C1366.73 88.2555 1373.5 104.75 1378.57 152.12C1383.65 199.491 1387.03 239.245 1388.73 271.39C1390.42 303.534 1395.49 330.6 1403.95 352.594C1412.41 374.588 1421.97 393.364 1432.63 408.93C1443.11 424.663 1453.01 437.182 1462.32 446.487C1471.62 455.793 1483.04 463.827 1496.58 470.595C1510.11 477.363 1532.1 480.745 1562.55 480.745C1593.01 480.745 1619.65 476.939 1642.49 469.326C1665.33 461.713 1683.94 453.255 1698.32 443.949C1712.7 434.644 1725.13 424.326 1735.62 412.99C1746.28 401.487 1754.57 388.545 1760.49 374.164C1766.41 359.783 1769.37 343.712 1769.37 325.949C1769.37 308.185 1766.41 290.846 1760.49 273.927C1754.57 257.009 1745.69 239.245 1733.84 220.637C1722 202.028 1710.58 186.379 1699.59 173.69C1688.59 161.002 1682.84 154.491 1682.33 154.151Z" fill="#030303" stroke="#030303" stroke-width="1.26882"/>
<path d="M2371.55 376.702L2372.06 377.971V382.538C2372.06 385.416 2372.23 387.106 2372.57 387.614L2373.33 388.121V395.734L2372.57 395.227C2372.23 394.719 2371.21 394.212 2369.52 393.704C2367.83 393.364 2366.82 394.042 2366.48 395.734C2365.97 397.427 2363.43 398.696 2358.87 399.541L2351.76 400.809L2353.03 403.855C2353.87 406.052 2354.98 406.56 2356.33 405.377C2357.51 404.025 2358.36 404.616 2358.87 407.154L2359.37 410.96H2354.3L2353.79 413.498L2353.03 416.035L2352.27 415.528L2351.76 414.766L2351.25 414.005L2350.49 413.498L2349.22 410.96C2348.38 409.267 2347.36 409.1 2346.18 410.453L2344.15 412.229L2343.64 412.99L2342.88 413.498L2342.12 414.005L2341.61 414.766V416.035L2340.34 415.528C2339.49 415.02 2329.77 405.464 2311.16 386.852C2292.55 368.244 2270.72 349.042 2245.68 329.248C2220.82 309.287 2190.87 288.478 2155.85 266.822C2120.67 245.336 2081.08 224.443 2037.09 204.142C1993.11 183.841 1944.89 164.809 1892.45 147.045C1840 129.282 1783.75 113.632 1723.69 100.099C1663.64 86.5655 1601.46 75.5673 1537.18 67.1094C1472.89 58.6514 1402.68 53.1523 1326.55 50.6147C1250.42 48.077 1182.33 48.5008 1122.27 51.8835C1062.21 55.2662 1001.73 61.189 940.831 69.647C879.928 78.105 819.024 89.5244 758.121 103.905C697.217 118.286 641.389 134.357 590.636 152.12C539.884 169.884 493.358 188.916 451.066 209.217C408.771 229.519 370.283 250.243 335.603 271.39C300.921 292.536 269.201 314.953 240.442 338.637C211.68 362.321 187.572 385.16 168.119 407.154C148.663 429.147 131.744 450.885 117.366 472.371L95.796 504.853H95.2885C94.7809 504.853 94.2734 505.277 93.7659 506.122L93.2583 507.39L88.183 507.898L83.1078 508.659L80.5701 509.421L78.0325 509.928V504.853L81.8389 504.345C84.3766 503.838 82.684 502.993 76.7636 501.808C70.8408 500.455 67.7119 497.24 67.3744 492.165C66.8668 487.089 65.1742 482.014 62.2991 476.939L57.7313 469.326L59.0001 468.818C59.8452 468.311 60.269 467.803 60.269 467.296V466.788L80.0626 437.605C93.0883 418.149 112.037 395.057 136.906 368.328C161.942 341.766 189.689 316.643 220.141 292.96C250.592 269.276 285.695 245.589 325.453 221.906C365.207 198.222 406.657 176.652 449.797 157.196C492.937 137.74 537.767 119.976 584.292 103.905C630.815 87.8343 684.105 72.6084 744.164 58.2276C804.22 43.8468 866.816 32.0061 931.949 22.7006C997.081 13.3951 1060.52 7.05095 1122.27 3.66827C1184.02 0.285591 1252.54 -0.138196 1327.82 2.39945C1403.1 4.93709 1473.31 10.4362 1538.45 18.8941C1603.58 27.3521 1666.17 38.3502 1726.23 51.8835C1786.29 65.4167 1845.5 81.9114 1903.87 101.368C1962.23 120.824 2015.1 141.546 2062.47 163.54C2109.84 185.534 2151.71 207.949 2188.08 230.787C2224.45 253.626 2252.11 272.405 2271.06 287.123C2290.18 302.009 2309.47 318.336 2328.92 336.1C2348.38 353.863 2360.22 364.859 2364.45 369.089C2368.68 373.319 2371.05 375.857 2371.55 376.702Z" fill="#030303" stroke="#030303" stroke-width="1.26882"/>
<path d="M186.644 980.661L189.689 976.855L230.291 1010.35C257.358 1032.85 287.809 1055.1 321.646 1077.09C355.481 1099.09 393.969 1120.66 437.109 1141.8C480.249 1162.95 529.309 1183.25 584.292 1202.7C639.273 1222.16 697.218 1239.08 758.121 1253.46C819.024 1267.84 879.928 1279.26 940.831 1287.72C1001.73 1296.17 1062.21 1302.1 1122.27 1305.48C1182.33 1308.86 1250.42 1309.29 1326.55 1306.75C1402.68 1304.21 1472.89 1298.71 1537.18 1290.25C1601.46 1281.8 1663.64 1270.8 1723.69 1257.26C1783.75 1243.73 1840 1228.08 1892.45 1210.32C1944.89 1192.55 1994.12 1172.93 2040.14 1151.44C2086.32 1129.79 2127.43 1107.8 2163.47 1085.47C2199.33 1062.97 2223.19 1047.06 2235.03 1037.76C2246.87 1028.45 2253.64 1023.38 2255.33 1022.53L2257.87 1021.26L2259.14 1020.5L2260.41 1019.99L2262.94 1020.5L2265.48 1021.26L2265.99 1022.02L2266.75 1022.53L2267.51 1023.04L2268.02 1023.8L2271.83 1024.56L2275.63 1025.07V1032.68H2280.71L2281.98 1043.34C2282.82 1050.61 2283.41 1054.5 2283.75 1055.01C2284.26 1055.35 2284.76 1056.37 2285.27 1058.06L2285.78 1060.6V1061.1C2285.78 1061.61 2284.93 1062.12 2283.24 1062.63L2280.71 1063.13L2280.2 1061.87C2279.69 1061.02 2278.34 1060.17 2276.14 1059.33C2274.11 1058.48 2273.26 1058.9 2273.6 1060.6L2274.36 1063.13L2273.6 1065.16C2273.26 1066.35 2273.09 1067.19 2273.09 1067.7V1068.21L2271.83 1068.72C2270.98 1069.22 2270.56 1069.73 2270.56 1070.24V1070.75L2270.05 1072.02C2269.54 1072.86 2254.91 1083.01 2226.15 1102.47C2197.39 1121.92 2164.65 1141.63 2127.94 1161.59C2091.06 1181.39 2047.67 1201.44 1997.76 1221.74C1947.85 1242.04 1893.72 1260.65 1835.35 1277.57C1776.98 1294.48 1715.66 1308.86 1651.37 1320.71C1587.52 1332.49 1523.17 1341.38 1458.51 1347.35C1394.22 1353.27 1324.44 1356.23 1249.15 1356.23C1173.87 1356.23 1110.43 1354.12 1058.83 1349.89C1007.23 1345.66 950.558 1338.47 888.81 1328.32C827.059 1318.17 767.003 1305.48 708.637 1290.25C650.271 1275.03 596.981 1258.53 548.765 1240.77C500.55 1223.01 453.604 1202.7 407.926 1179.87C362.249 1157.03 322.915 1135.03 289.926 1113.89C256.936 1092.74 228.175 1071.76 203.646 1050.95L166.85 1019.99L165.581 1019.49L164.312 1018.73V1016.95C164.312 1016.44 164.99 1015.6 166.343 1014.41L168.119 1012.38L167.358 1011.87L166.85 1011.11L167.358 1010.35L168.119 1009.84L169.388 1004.77C170.233 1001.39 170.91 998.424 171.418 995.887L171.925 992.08L177.001 991.573C180.383 991.065 182.243 989.713 182.583 987.513C183.091 985.483 184.444 983.199 186.644 980.661ZM2372.06 382.538V377.971L2400.48 413.498C2419.6 437.182 2435.92 461.713 2449.46 487.089C2462.99 512.466 2473.99 539.535 2482.45 568.294C2490.91 597.053 2495.98 618.202 2497.68 631.735C2499.37 645.268 2499.79 665.146 2498.94 691.37C2498.1 717.594 2494.29 744.239 2487.53 771.305C2480.76 798.372 2471.03 825.017 2458.34 851.241C2445.65 877.465 2438.89 891.422 2438.04 893.112L2436.77 895.65L2436.01 896.158L2435.5 896.919L2435 897.68L2434.23 898.188L2432.97 901.994L2431.7 905.801L2430.93 906.308L2430.43 907.069L2429.92 907.831L2429.16 908.338L2428.4 908.846L2427.89 909.607L2427.38 910.368L2426.62 910.876H2425.35L2425.86 905.801L2426.62 900.725V898.188L2425.86 897.68L2425.35 896.919L2424.85 896.158L2424.08 895.65L2423.32 895.142L2422.82 894.381L2423.32 893.62L2424.08 893.112V891.844C2424.08 890.996 2423.49 886.768 2422.31 879.155C2420.95 871.542 2418.58 867.736 2415.2 867.736C2411.82 867.736 2410.29 866.888 2410.63 865.198C2411.14 863.508 2411.65 860.544 2412.16 856.316C2412.49 852.089 2410.97 850.394 2407.59 851.241L2402.51 852.51L2403.02 849.972C2403.53 848.282 2407.17 840.669 2413.93 827.134C2420.7 813.598 2427.47 794.144 2434.23 768.768C2441 743.391 2444.38 713.361 2444.38 678.681C2444.38 643.999 2441.42 615.24 2435.5 592.402C2429.58 569.563 2420.7 545.879 2408.86 521.348C2397.01 496.816 2383.23 474.234 2367.49 453.592L2344.15 422.379L2343.64 421.618L2342.88 421.111L2342.12 418.573L2341.61 416.035V414.767L2342.12 414.005L2342.88 413.498L2343.64 412.99L2344.15 412.229L2346.18 410.453C2347.36 409.1 2348.38 409.27 2349.22 410.96L2350.49 413.498L2351.25 414.005L2351.76 414.767L2352.27 415.528L2353.03 416.035V412.229C2353.03 409.691 2352.77 407.154 2352.27 404.616L2351.76 400.809L2357.34 399.541C2361.23 398.696 2362.92 397.427 2362.42 395.734C2362.08 394.042 2363.6 393.364 2366.99 393.704C2370.37 394.212 2372.23 394.719 2372.57 395.227L2373.33 395.734V388.121L2372.57 387.614C2372.23 387.106 2372.06 385.416 2372.06 382.538ZM2357.34 405.377C2357.18 405.157 2357.09 404.89 2357.09 404.616C2357.09 404.342 2357.18 404.074 2357.34 403.855C2357.85 403.515 2358.11 403.768 2358.11 404.616C2358.11 405.464 2357.85 405.717 2357.34 405.377Z" fill="#020202" stroke="#020202" stroke-width="1.26882"/>
<path d="M59.7615 466.788H60.269L62.8067 473.894C64.4967 478.461 65.7656 483.877 66.6131 490.135C67.4582 496.562 70.8408 500.453 76.7637 501.808C82.684 502.993 84.3766 503.838 81.839 504.345L78.0325 504.853V509.928L80.5702 509.421L83.1078 508.659L86.9143 507.391C89.4519 506.545 91.5658 505.868 93.2584 505.36L95.796 504.853L80.0626 542.918C69.4045 568.294 61.9591 592.402 57.7314 615.24C53.5011 638.079 51.8085 663.034 52.6561 690.101C53.5011 717.167 57.3076 743.391 64.0755 768.768C70.8408 794.144 80.7376 819.353 93.7659 844.39C106.962 869.258 122.441 893.112 140.205 915.951C157.968 938.79 170.4 954.183 177.508 962.136C184.781 970.257 188.671 974.741 189.181 975.586L189.689 976.855L186.644 980.661C184.444 983.199 183.091 985.483 182.583 987.513C182.243 989.71 180.383 991.063 177.001 991.573L171.925 992.08L171.418 995.887C170.91 998.425 170.233 1001.39 169.388 1004.77L168.119 1009.84L167.358 1010.35L166.85 1011.11L167.358 1011.87L168.119 1012.38V1019.99H166.85L165.581 1019.49L164.312 1018.73V1017.46L163.044 1016.95L161.775 1016.19L161.267 1015.43L160.506 1014.92L159.745 1014.41L159.237 1013.65L158.73 1012.89L157.968 1012.38L157.207 1011.87L156.699 1011.11L156.192 1010.35L155.431 1009.84L154.669 1009.34L154.162 1008.58L153.654 1007.81C153.147 1007.47 150.355 1004.77 145.28 999.693C140.205 994.618 126.248 978.123 103.409 950.209C80.5702 922.295 61.1141 892.265 45.0432 860.123C28.9697 827.981 17.5503 798.372 10.785 771.305C4.01708 744.239 0.634399 712.94 0.634399 677.413C0.634399 641.886 4.01708 611.01 10.785 584.789C17.5503 558.567 27.1096 532.767 39.4603 507.391L57.7314 469.326L58.2389 468.057C58.7464 467.212 59.254 466.788 59.7615 466.788Z" fill="#020202" stroke="#020202" stroke-width="1.26882"/>
<path d="M2404.54 851.241L2405.05 849.972H2408.86C2411.4 849.972 2412.49 852.089 2412.16 856.316C2411.65 860.544 2411.14 863.508 2410.63 865.198C2410.29 866.888 2411.82 867.736 2415.2 867.736C2418.58 867.736 2420.95 871.542 2422.31 879.155C2423.49 886.768 2424.08 890.996 2424.08 891.843V893.112L2423.32 893.62L2422.81 894.381L2423.32 895.142L2424.08 895.65L2424.85 896.157L2425.35 896.919L2427.89 897.68C2429.58 898.02 2430.43 899.035 2430.43 900.725V903.263L2429.16 903.77C2428.31 904.278 2427.89 904.783 2427.89 905.293V905.801H2427.38C2426.88 905.801 2426.37 906.648 2425.86 908.338L2425.35 910.876L2424.85 913.413C2424.34 915.104 2413.93 928.218 2393.63 952.747C2373.33 977.278 2350.24 1001.39 2324.35 1025.07L2285.78 1060.6L2285.27 1058.06C2284.77 1056.37 2284.26 1056.37 2283.75 1058.06L2283.24 1060.6L2282.74 1061.87L2281.98 1063.13H2280.71L2280.2 1064.4L2279.44 1065.67L2278.67 1066.18L2278.17 1066.94L2277.66 1067.7L2276.9 1068.21L2276.14 1068.72L2275.63 1069.48L2273.09 1070.24L2270.56 1070.75V1065.67L2273.09 1065.16L2275.63 1064.4L2275.12 1063.64L2274.36 1063.13L2273.6 1060.6C2273.26 1058.9 2273.94 1058.06 2275.63 1058.06C2277.32 1058.06 2278.34 1057.21 2278.67 1055.52C2279.18 1053.83 2279.69 1049.6 2280.2 1042.83L2280.71 1032.68L2278.17 1032.18C2276.48 1031.67 2273.94 1031.16 2270.56 1030.65C2267.17 1030.31 2265.65 1028.88 2265.99 1026.34L2266.75 1022.53L2265.99 1022.02L2265.48 1021.26L2262.94 1020.5L2260.41 1019.99V1018.73L2260.91 1017.96L2261.67 1017.46L2262.44 1016.95L2262.94 1016.19L2263.45 1015.43L2264.21 1014.92L2294.66 987.005C2314.97 968.397 2334.42 947.25 2353.03 923.564C2371.64 899.878 2384.33 882.54 2391.09 871.542C2397.86 860.544 2401.5 854.626 2402.01 853.779L2402.51 852.51H2403.02C2403.53 852.51 2404.04 852.089 2404.54 851.241Z" fill="#030303" stroke="#030303" stroke-width="1.26882"/>
<path d="M1335.7 855.943V857.093H1301.96L1273.97 813.767C1263.23 815.3 1250.32 816.067 1235.24 816.067C1205.08 816.067 1183.61 812.744 1170.83 806.099C1158.05 799.197 1149.87 787.056 1146.29 769.674C1142.97 752.293 1141.31 722.769 1141.31 681.105C1141.31 639.44 1142.97 609.917 1146.29 592.536C1149.87 575.154 1158.05 563.141 1170.83 556.495C1183.61 549.593 1205.08 546.143 1235.24 546.143C1265.4 546.143 1286.75 549.593 1299.27 556.495C1312.05 563.141 1320.1 575.154 1323.43 592.536C1327.01 609.917 1328.8 639.44 1328.8 681.105C1328.8 708.2 1328.16 729.415 1326.88 744.752C1325.86 759.833 1323.43 772.358 1319.59 782.327C1315.76 792.04 1309.75 799.453 1301.57 804.565L1335.7 855.943ZM1235.24 788.845C1245.98 788.845 1253.39 788.717 1257.48 788.461L1219.52 729.415H1251.35L1284.7 779.643C1290.33 774.019 1293.9 764.306 1295.44 750.503C1297.23 736.7 1298.12 713.568 1298.12 681.105C1298.12 644.041 1296.84 618.608 1294.29 604.805C1291.73 591.002 1286.62 582.312 1278.95 578.733C1271.28 575.154 1256.71 573.365 1235.24 573.365C1213.77 573.365 1199.07 575.154 1191.15 578.733C1183.48 582.312 1178.37 591.002 1175.81 604.805C1173.26 618.608 1171.98 644.041 1171.98 681.105C1171.98 718.169 1173.26 743.602 1175.81 757.405C1178.37 771.208 1183.48 779.898 1191.15 783.477C1199.07 787.056 1213.77 788.845 1235.24 788.845Z" fill="white"/>
</svg>
